<?xml version="1.0" encoding="utf-8"?>
<!-- Generator: Adobe Illustrator 21.0.0, SVG Export Plug-In . SVG Version: 6.00 Build 0)  -->
<svg version="1.1" id="Layer_1" xmlns="http://www.w3.org/2000/svg" xmlns:xlink="http://www.w3.org/1999/xlink" x="0px" y="0px"
	 viewBox="0 0 512 512" style="enable-background:new 0 0 512 512;" xml:space="preserve">
<g>
	<path d="M256,0c-23.9,0-40.8,16.9-49.1,37.9H47.4V512h417.2V37.9H305.1C296.8,16.9,279.9,0,256,0z M256,37.9c10.4,0,19,8.5,19,19
		v19h56.9v37.9H180.1V75.9H237v-19C237,46.5,245.6,37.9,256,37.9z M85.3,75.9h56.9v75.9h227.6V75.9h56.9v398.2H85.3V75.9z
		 M123.3,208.6v37.9h37.9v-37.9H123.3z M199.1,208.6v37.9h189.6v-37.9H199.1z M123.3,284.4v37.9h37.9v-37.9H123.3z M199.1,284.4
		v37.9h189.6v-37.9H199.1z M123.3,360.3v37.9h37.9v-37.9H123.3z M199.1,360.3v37.9h189.6v-37.9H199.1z"/>
</g>
</svg>
